#!OML:ASF I:\Actors\actors\Patient Classification 1\Patient 1\Session 1\Subject1.ASF
:FULLY-SPECIFIED
:DEGREES
1209
root -1.01297 17.7397 8.64899 12.4067 2.38241 -7.08836
lowerback 1.52748 0.552816 5.15935
upperback -10.177 1.25067 0.92264
thorax -11.7139 0.176114 -2.02576
lowerneck -15.4108 -2.65108 -0.569566
upperneck 19.3073 -4.28581 3.39019
head 8.66039 -1.70404 0.726241
rclavicle 1.14798e-014 2.46493e-014
rhumerus 44.8056 26.6412 -61.1688
rradius 66.7234
rwrist -13.0248
rhand 0.93579 -65.3232
rfingers 7.12502
rthumb 26.4864 -266.508
lclavicle 1.14798e-014 2.46493e-014
lhumerus 41.6765 -29.4847 62.2572
lradius 63.1331
lwrist 45.5472
lhand -45.7754 -3.33536
lfingers 7.12502
lthumb -18.5297 25.8021
rfemur -3.07899 28.184 25.0585
rtibia -0.0752892
rfoot -14.1068 -31.3242
rtoes 8.10429
lfemur -2.32645 -34.7673 -6.92505
ltibia -2.34188
lfoot -9.66627 42.772
ltoes -0.577347
1210
root -1.0002 17.7224 8.64943 12.1179 2.18193 -7.23276
lowerback 1.49693 0.617321 5.53845
upperback -10.3816 1.36511 0.829045
thorax -11.923 0.180563 -2.3508
lowerneck -15.5821 -2.69489 -0.511335
upperneck 19.9089 -4.43322 3.5787
head 8.90446 -1.73637 0.759075
rclavicle -1.08338e-014 -1.59028e-015
rhumerus 43.8724 27.1536 -60.9686
rradius 68.3792
rwrist -12.9108
rhand 0.669552 -65.5471
rfingers 7.12502
rthumb 26.2315 -266.246
lclavicle -1.08338e-014 -1.59028e-015
lhumerus 40.4275 -30.2321 61.6597
lradius 65.3735
lwrist 45.5817
lhand -46.1273 -3.5798
lfingers 7.12502
lthumb -18.8681 25.5251
rfemur -2.88548 27.5463 25.2596
rtibia 0.113406
rfoot -13.9494 -30.5208
rtoes 7.29214
lfemur -1.87825 -34.5579 -7.14395
ltibia -2.25362
lfoot -10.4719 42.8296
ltoes -0.0989538
1211
root -0.98963 17.7071 8.64836 11.8442 1.99633 -7.40592
lowerback 1.30224 0.640169 5.78606
upperback -10.4044 1.40116 0.829795
thorax -11.8268 0.176438 -2.48841
lowerneck -16.0821 -2.69801 -0.420933
upperneck 20.4402 -4.52294 3.71698
head 9.18369 -1.73964 0.773061
rclavicle 1.82882e-014 -1.43125e-014
rhumerus 43.2652 27.883 -60.4508
rradius 70.5381
rwrist -13.3863
rhand -0.612783 -65.7386
rfingers 7.12502
rthumb 25.0033 -265.878
lclavicle 1.82882e-014 -1.43125e-014
lhumerus 39.36 -30.7144 61.0469
lradius 67.6098
lwrist 45.2947
lhand -46.8568 -3.21418
lfingers 7.12502
lthumb -19.5696 25.8209
rfemur -2.66832 27.0725 25.4982
rtibia 0.249784
rfoot -13.856 -29.8237
rtoes 6.7901
lfemur -1.43212 -34.4103 -7.3029
ltibia -2.21244
lfoot -11.0502 42.929
ltoes 0.11444
1212
root -0.98111 17.6932 8.6461 11.5504 1.8244 -7.58413
lowerback 1.12052 0.645999 5.93486
upperback -10.4978 1.41688 0.900482
thorax -11.8247 0.172461 -2.49314
lowerneck -16.1179 -2.71456 -0.435605
upperneck 20.8124 -4.59028 3.83498
head 9.32505 -1.75178 0.806477
rclavicle 8.74653e-015 -3.4191e-014
rhumerus 42.3564 28.5459 -60.2757
rradius 72.0188
rwrist -12.9296
rhand -1.37562 -65.5133
rfingers 7.12502
rthumb 24.2721 -266.003
lclavicle 8.74653e-015 -3.4191e-014
lhumerus 37.8945 -31.2687 60.7394
lradius 69.9178
lwrist 44.7486
lhand -47.5332 -3.22531
lfingers 7.12502
lthumb -20.2198 25.7423
rfemur -2.39826 26.7013 25.7608
rtibia 0.343611
rfoot -13.861 -29.2464
rtoes 6.67442
lfemur -0.907615 -34.4232 -7.48697
ltibia -2.26179
lfoot -11.474 43.2013
ltoes 0.266002
1213
root -0.970936 17.6808 8.64212 11.2477 1.69283 -7.70364
lowerback 0.937262 0.634459 6.01466
upperback -10.6403 1.40777 0.990717
thorax -11.8823 0.161705 -2.43554
lowerneck -15.883 -2.73252 -0.584052
upperneck 21.1707 -4.63349 3.998
head 9.41555 -1.76252 0.884296
rclavicle -7.95139e-016 4.09496e-014
rhumerus 41.4684 29.8403 -59.6635
rradius 74.7637
rwrist -13.6908
rhand -3.36603 -66.2471
rfingers 7.12502
rthumb 22.3626 -265.027
lclavicle -7.95139e-016 4.09496e-014
lhumerus 36.0754 -31.9414 60.7364
lradius 72.2678
lwrist 44.0817
lhand -47.9798 -3.88543
lfingers 7.12502
lthumb -20.649 25.0362
rfemur -2.09653 26.3224 25.9495
rtibia 0.38543
rfoot -13.9093 -28.7389
rtoes 6.85045
lfemur -0.379645 -34.6125 -7.75403
ltibia -2.31902
lfoot -11.8739 43.5671
ltoes 0.502264
